<?xml version="1.0" encoding="UTF-8"?> <svg xmlns="http://www.w3.org/2000/svg" width="64" height="64" viewBox="0 0 64 64" fill="none"><circle cx="32" cy="32" r="32" fill="#000000"></circle><path d="M42.2858 31.4286C42.2897 32.937 41.9373 34.425 41.2572 35.7714C40.4508 37.3848 39.2112 38.7419 37.6772 39.6906C36.1431 40.6393 34.3752 41.1421 32.5715 41.1428C31.0631 41.1468 29.5751 40.7943 28.2286 40.1143L21.7144 42.2857L23.8858 35.7714C23.2057 34.425 22.8533 32.937 22.8572 31.4286C22.8579 29.6248 23.3608 27.857 24.3095 26.3229C25.2582 24.7888 26.6152 23.5492 28.2286 22.7428C29.5751 22.0628 31.0631 21.7103 32.5715 21.7143H33.1429C35.525 21.8457 37.775 22.8511 39.4619 24.5381C41.1489 26.2251 42.1544 28.475 42.2858 30.8571V31.4286Z" stroke="white" stroke-width="2" stroke-linecap="round" stroke-linejoin="round"></path></svg> 